<svg xmlns="http://www.w3.org/2000/svg" width="57" height="35" viewBox="0 0 57 35">
  <g fill="none" fill-rule="evenodd">
    <ellipse cx="40" cy="17.5" fill="#FF5B5B" rx="17" ry="17.5"/>
    <path fill="#3A3939" fill-rule="nonzero" d="M10.6777344,22.6025391 C10.484374,23.4261109 10.1710634,24.154782 9.73779297,24.7885742 C9.30452257,25.4223665 8.80501585,25.946938 8.23925781,26.3623047 C7.68066127,26.7705099 7.0719434,27.0874012 6.41308594,27.3129883 C5.75422848,27.5385753 5.08821951,27.6513672 4.41503906,27.6513672 C3.06867816,27.6513672 1.9962605,27.3326855 1.19775391,26.6953125 C0.39924731,26.0579395 0,25.187831 0,24.0849609 C0,23.404619 0.196938135,22.8406598 0.590820312,22.3930664 C0.98470249,21.945473 1.51106441,21.7216797 2.16992188,21.7216797 C2.80729485,21.7216797 3.30143054,21.9025047 3.65234375,22.2641602 C4.00325696,22.6258156 4.17871094,23.0787733 4.17871094,23.6230469 C4.17871094,23.9095066 4.11067776,24.1888007 3.97460938,24.4609375 C3.83854099,24.7330743 3.59863453,25.0302718 3.25488281,25.3525391 L2.58886719,25.9755859 L2.58886719,26.1152344 C2.65332063,26.2871102 2.79296768,26.4178055 3.0078125,26.5073242 C3.22265732,26.5968429 3.44107962,26.6416016 3.66308594,26.6416016 C4.40788133,26.6416016 5.0434544,26.3282909 5.56982422,25.7016602 C6.09619404,25.0750294 6.49902204,24.1458395 6.77832031,22.9140625 L8.72265625,14.4921875 C8.75846372,14.3417961 8.78352857,14.2164719 8.79785156,14.1162109 C8.81217455,14.01595 8.81933594,13.9407555 8.81933594,13.890625 C8.81933594,13.5898422 8.66357578,13.3553068 8.35205078,13.1870117 C8.04052579,13.0187166 7.54101906,12.8844406 6.85351562,12.7841797 L7.03613281,12 L15.2646484,12 L15.0820312,12.7841797 C14.8600249,12.7985027 14.596844,12.8343096 14.2924805,12.8916016 C13.988117,12.9488935 13.7464202,13.0026039 13.5673828,13.0527344 C13.2666001,13.1458338 13.0517585,13.2819001 12.9228516,13.4609375 C12.7939447,13.6399749 12.6936853,13.8691392 12.6220703,14.1484375 L10.6777344,22.6025391 Z M26.8662109,20.8085938 C26.8662109,21.710942 26.6943377,22.5738891 26.3505859,23.3974609 C26.0068342,24.2210328 25.5198599,24.9371714 24.8896484,25.5458984 C24.2093065,26.1975944 23.4126022,26.7006818 22.4995117,27.0551758 C21.5864212,27.4096697 20.5605526,27.5869141 19.421875,27.5869141 C17.8964767,27.5869141 16.6647182,27.1805054 15.7265625,26.3676758 C14.7884068,25.5548462 14.3193359,24.4466216 14.3193359,23.0429688 C14.3193359,22.09049 14.4965803,21.2060588 14.8510742,20.3896484 C15.2055682,19.5732381 15.7014942,18.8606801 16.3388672,18.2519531 C16.9690787,17.6575491 17.7425084,17.1866879 18.6591797,16.8393555 C19.5758509,16.492023 20.567703,16.3183594 21.6347656,16.3183594 C23.2532633,16.3183594 24.5297805,16.714026 25.4643555,17.5053711 C26.3989305,18.2967162 26.8662109,19.3977794 26.8662109,20.8085938 Z M23.0849609,19.5947266 C23.0849609,18.7568317 22.9435235,18.1409525 22.6606445,17.7470703 C22.3777655,17.3531881 21.9677761,17.15625 21.4306641,17.15625 C20.879229,17.15625 20.3743513,17.3764626 19.9160156,17.8168945 C19.45768,18.2573264 19.0852879,18.9036416 18.7988281,19.7558594 C18.5481758,20.4648473 18.3691412,21.232906 18.2617188,22.0600586 C18.1542963,22.8872112 18.1005859,23.6266243 18.1005859,24.2783203 C18.1005859,25.1448611 18.2438137,25.7732728 18.5302734,26.1635742 C18.8167332,26.5538756 19.2320936,26.7490234 19.7763672,26.7490234 C20.3636097,26.7490234 20.8720682,26.509117 21.3017578,26.0292969 C21.7314475,25.5494768 22.0716133,24.9586624 22.3222656,24.2568359 C22.5729179,23.5693325 22.7626947,22.8084352 22.8916016,21.9741211 C23.0205085,21.139807 23.0849609,20.3466834 23.0849609,19.5947266 Z M36.2119141,25.5244141 L36.1367188,25.5244141 C35.3274699,26.262048 34.5826857,26.7740871 33.9023438,27.0605469 C33.2220018,27.3470066 32.4700562,27.4902344 31.6464844,27.4902344 C30.8515585,27.4902344 30.2338889,27.2682314 29.793457,26.8242188 C29.3530251,26.3802061 29.1328125,25.8466828 29.1328125,25.2236328 C29.1328125,25.0016265 29.1453449,24.7760428 29.1704102,24.546875 C29.1954754,24.3177072 29.2617182,23.9954448 29.3691406,23.5800781 L30.1748047,20.6474609 C30.2249351,20.4469391 30.2840166,20.1730161 30.3520508,19.8256836 C30.420085,19.4783511 30.4541016,19.2223316 30.4541016,19.0576172 C30.4541016,18.649412 30.373536,18.3683276 30.2124023,18.2143555 C30.0512687,18.0603833 29.7379581,17.9833984 29.2724609,17.9833984 C29.0432931,17.9833984 28.8087577,18.0192054 28.5688477,18.0908203 C28.3289376,18.1624353 28.1230477,18.2304684 27.9511719,18.2949219 L28.1875,17.328125 C28.767581,17.0917957 29.3225885,16.8894865 29.8525391,16.7211914 C30.3824896,16.5528963 30.8837867,16.46875 31.3564453,16.46875 C32.2086631,16.46875 32.8657203,16.6818013 33.3276367,17.1079102 C33.7895531,17.5340191 34.0205078,18.0621713 34.0205078,18.6923828 C34.0205078,18.8212897 34.006185,19.0576155 33.9775391,19.4013672 C33.9488931,19.7451189 33.891602,20.0638006 33.8056641,20.3574219 L33.0214844,23.1503906 C32.9498694,23.4010429 32.8925783,23.6695949 32.8496094,23.9560547 C32.8066404,24.2425145 32.7851562,24.4501947 32.7851562,24.5791016 C32.7851562,24.9371763 32.8728832,25.209309 33.0483398,25.3955078 C33.2237965,25.5817067 33.5013002,25.6748047 33.8808594,25.6748047 C34.1959651,25.6748047 34.5952124,25.5548515 35.0786133,25.3149414 C35.5620141,25.0750314 36.0078105,24.7545593 36.4160156,24.3535156 L38.0488281,16.6513672 L41.4541016,16.5009766 L41.6044922,16.6728516 L39.7246094,25.40625 C39.4381496,26.7096419 39.037112,27.7856403 38.5214844,28.6342773 C38.0058568,29.4829144 37.407881,30.1578751 36.7275391,30.6591797 C36.0758431,31.1389998 35.3704465,31.4845367 34.6113281,31.6958008 C33.8522097,31.9070649 33.0823607,32.0126953 32.3017578,32.0126953 C31.44954,32.0126953 30.7423531,31.9500332 30.1801758,31.824707 C29.6179985,31.6993809 29.1793636,31.5257173 28.8642578,31.3037109 C28.577798,31.1031891 28.3826503,30.8793958 28.2788086,30.6323242 C28.1749669,30.3852527 28.1230469,30.1435559 28.1230469,29.9072266 C28.1230469,29.4918599 28.2698553,29.1230485 28.5634766,28.8007812 C28.8570978,28.478514 29.2581355,28.3173828 29.7666016,28.3173828 C30.1533222,28.3173828 30.4988592,28.4212229 30.8032227,28.6289062 C31.1075862,28.8365896 31.3743478,29.0872381 31.6035156,29.3808594 C31.8255219,29.6601576 32.0242504,29.9698876 32.199707,30.3100586 C32.3751636,30.6502296 32.5094396,30.9277333 32.6025391,31.1425781 C32.731446,31.1210936 32.8907868,31.076335 33.0805664,31.0083008 C33.270346,30.9402666 33.4296869,30.8632817 33.5585938,30.7773438 C33.7447926,30.6555983 33.9095045,30.5338548 34.0527344,30.4121094 C34.1959643,30.290364 34.3606762,30.1041679 34.546875,29.8535156 C34.9049497,29.3736955 35.2236314,28.7793004 35.5029297,28.0703125 C35.782228,27.3613246 36.0185537,26.5127003 36.2119141,25.5244141 Z M47.7275391,25.4599609 C47.7275391,26.025719 47.5180685,26.516274 47.0991211,26.9316406 C46.6801737,27.3470073 46.1842477,27.5546875 45.6113281,27.5546875 C45.0312471,27.5546875 44.5317404,27.3487976 44.112793,26.9370117 C43.6938456,26.5252258 43.484375,26.0328805 43.484375,25.4599609 C43.484375,24.8870414 43.6938456,24.3911154 44.112793,23.972168 C44.5317404,23.5532206 45.0312471,23.34375 45.6113281,23.34375 C46.1842477,23.34375 46.6801737,23.5550109 47.0991211,23.9775391 C47.5180685,24.4000672 47.7275391,24.8942029 47.7275391,25.4599609 Z"/>
  </g>
</svg>
