<svg xmlns="http://www.w3.org/2000/svg" width="48" height="42" viewBox="0 0 48 42">
  <path d="M1734.999,5525.994 C1731.767,5525.994 1728.955,5524.275 1727.368,5521.716 L1713.87,5527.712 C1713.931,5528.135 1713.999,5528.555 1713.999,5528.994 C1713.999,5529.652 1713.919,5530.289 1713.785,5530.908 L1727.076,5536.81 C1728.586,5533.958 1731.548,5531.994 1734.999,5531.994 C1739.97,5531.994 1743.999,5536.024 1743.999,5540.994 C1743.999,5545.965 1739.97,5549.995 1734.999,5549.995 C1730.029,5549.995 1725.999,5545.965 1725.999,5540.994 C1725.999,5540.555 1726.067,5540.134 1726.128,5539.711 L1712.63,5533.716 C1711.043,5536.276 1708.231,5537.995 1704.999,5537.995 C1700.029,5537.995 1695.999,5533.965 1695.999,5528.994 C1695.999,5524.023 1700.029,5519.994 1704.999,5519.994 C1708.45,5519.994 1711.412,5521.959 1712.922,5524.81 L1726.212,5518.906 C1726.078,5518.29 1725.999,5517.651 1725.999,5516.994 C1725.999,5512.025 1730.028,5507.996 1734.999,5507.996 C1739.97,5507.996 1743.999,5512.025 1743.999,5516.994 C1743.999,5521.965 1739.97,5525.994 1734.999,5525.994 Z M1734.999,5546.994 C1738.313,5546.994 1740.999,5544.308 1740.999,5540.994 C1740.999,5537.68 1738.312,5534.994 1734.999,5534.994 C1731.686,5534.994 1728.999,5537.68 1728.999,5540.994 C1728.999,5544.308 1731.686,5546.994 1734.999,5546.994 Z M1705,5522.993 C1701.686,5522.993 1699,5525.681 1699,5528.994 C1699,5532.308 1701.686,5534.994 1705,5534.994 C1708.313,5534.994 1711,5532.308 1711,5528.994 C1711,5525.681 1708.313,5522.993 1705,5522.993 Z M1734.999,5510.993 C1731.686,5510.993 1728.999,5513.681 1728.999,5516.994 C1728.999,5520.309 1731.685,5522.993 1734.999,5522.993 C1738.313,5522.993 1740.999,5520.309 1740.999,5516.994 C1741,5513.681 1738.313,5510.993 1734.999,5510.993 Z" transform="translate(-1696 -5508)"/>
</svg>
